TITLE "Sunday'z Sun e.p."
PERFORMER "SUEMITSU & THE SUEMITH"
REM DISCID 23030F03
FILE "Sunday'z Sun e.p..flac" WAVE
  TRACK 01 AUDIO
    TITLE "Sunday'z Sun"
    ISRC JPKS00602121
    INDEX 01 00:00:00
  TRACK 02 AUDIO
    TITLE "U R My Christmas"
    ISRC JPKS00602122
    INDEX 00 04:24:22
    INDEX 01 04:27:57
  TRACK 03 AUDIO
    TITLE "Forever"
    ISRC JPKS00602123
    INDEX 00 08:53:54
    INDEX 01 08:56:15
